<svg width="64" height="64" viewBox="0 0 64 64" fill="none" xmlns="http://www.w3.org/2000/svg">
  <defs>
    <linearGradient id="bg" x1="8" y1="6" x2="58" y2="60" gradientUnits="userSpaceOnUse">
      <stop stop-color="#0F172A"/>
      <stop offset="1" stop-color="#1E293B"/>
    </linearGradient>
  </defs>
  <rect width="64" height="64" rx="14" fill="url(#bg)"/>
  <circle cx="32" cy="32" r="21" stroke="#38BDF8" stroke-width="4"/>
  <path d="M20 34C23 26 27 22 32 22C37 22 41 26 44 34" stroke="#38BDF8" stroke-width="3" stroke-linecap="round"/>
  <path d="M23 20C25 20 27 22 27 24C27 25 26 26 25 26" stroke="#38BDF8" stroke-width="3" stroke-linecap="round"/>
  <path d="M39 18C42 18 44 21 44 24C44 25 43 26 41.8 26.5" stroke="#38BDF8" stroke-width="3" stroke-linecap="round"/>
  <path d="M15.5 30C18 30 20 31.8 20 34C20 36 19 37.7 17.2 38.8" stroke="#38BDF8" stroke-width="3" stroke-linecap="round"/>
  <path d="M46 30C49 30 51 32.2 51 35C51 37.8 49.3 39.8 46.6 40.4" stroke="#38BDF8" stroke-width="3" stroke-linecap="round"/>
</svg>
