<svg width="64" height="64" viewBox="0 0 64 64" fill="none" xmlns="http://www.w3.org/2000/svg">
  <rect width="64" height="64" rx="12" fill="#0F172A"/>
  <circle cx="32" cy="32" r="24" stroke="#38BDF8" stroke-width="4" fill="none"/>
  <path d="M20 34c3-8 8-12 12-12s9 4 12 12" stroke="#38BDF8" stroke-width="3" stroke-linecap="round" fill="none"/>
  <path d="M24 20c2 0 4 2 4 4 0 1-1 2-2 2" stroke="#38BDF8" stroke-width="3" stroke-linecap="round" fill="none"/>
  <path d="M40 18c3 0 5 3 5 5 0 2-2 3-3 3" stroke="#38BDF8" stroke-width="3" stroke-linecap="round" fill="none"/>
  <path d="M16 30c3 0 5 2 5 4s-1 4-3 4" stroke="#38BDF8" stroke-width="3" stroke-linecap="round" fill="none"/>
  <path d="M44 30c4 0 6 2 6 5s-2 5-4 5" stroke="#38BDF8" stroke-width="3" stroke-linecap="round" fill="none"/>
</svg>
